<svg xmlns="http://www.w3.org/2000/svg" viewBox="0 0 880 280" width="880" height="280" role="img" aria-label="LovelyMiscLab — node-based visual workbench">
  <defs>
    <linearGradient id="cardBg" x1="0" y1="0" x2="1" y2="1">
      <stop offset="0" stop-color="#0b1020"/>
      <stop offset="1" stop-color="#151d33"/>
    </linearGradient>
    <linearGradient id="cardAccent" x1="0" y1="0" x2="1" y2="1">
      <stop offset="0" stop-color="#8b5cf6"/>
      <stop offset="1" stop-color="#22d3ee"/>
    </linearGradient>
  </defs>

  <rect x="0" y="0" width="880" height="280" rx="26" fill="url(#cardBg)"/>
  <rect x="1.5" y="1.5" width="877" height="277" rx="24.5" fill="none" stroke="url(#cardAccent)" stroke-opacity="0.22"/>

  <svg x="50" y="62" width="156" height="156" viewBox="0 0 1024 1024">
    <defs>
      <linearGradient id="bg" x1="168" y1="84" x2="858" y2="942" gradientUnits="userSpaceOnUse">
        <stop stop-color="#FFFFFF"/><stop offset="0.52" stop-color="#F4FAFF"/><stop offset="1" stop-color="#EDF2FF"/>
      </linearGradient>
      <linearGradient id="flaskGlass" x1="354" y1="178" x2="646" y2="751" gradientUnits="userSpaceOnUse">
        <stop stop-color="#FFFFFF"/><stop offset="0.42" stop-color="#EAF7FF"/><stop offset="1" stop-color="#CDEEFF"/>
      </linearGradient>
      <linearGradient id="water" x1="292" y1="529" x2="650" y2="748" gradientUnits="userSpaceOnUse">
        <stop stop-color="#8FE6FF"/><stop offset="1" stop-color="#4DA9F7"/>
      </linearGradient>
      <linearGradient id="pink" x1="624" y1="520" x2="784" y2="672" gradientUnits="userSpaceOnUse">
        <stop stop-color="#FFB8CB"/><stop offset="1" stop-color="#FF7FA2"/>
      </linearGradient>
      <linearGradient id="mint" x1="768" y1="520" x2="920" y2="672" gradientUnits="userSpaceOnUse">
        <stop stop-color="#C8FFE9"/><stop offset="1" stop-color="#75DFC4"/>
      </linearGradient>
      <linearGradient id="cream" x1="624" y1="660" x2="784" y2="820" gradientUnits="userSpaceOnUse">
        <stop stop-color="#FFF9E8"/><stop offset="1" stop-color="#FFE2A5"/>
      </linearGradient>
      <linearGradient id="violet" x1="768" y1="660" x2="920" y2="820" gradientUnits="userSpaceOnUse">
        <stop stop-color="#E4D9FF"/><stop offset="1" stop-color="#A992F3"/>
      </linearGradient>
      <filter id="softShadow" x="-20%" y="-20%" width="140%" height="145%" color-interpolation-filters="sRGB">
        <feDropShadow dx="0" dy="22" stdDeviation="24" flood-color="#5867B2" flood-opacity="0.18"/>
        <feDropShadow dx="0" dy="6" stdDeviation="8" flood-color="#5867B2" flood-opacity="0.12"/>
      </filter>
      <filter id="smallShadow" x="-30%" y="-30%" width="160%" height="160%" color-interpolation-filters="sRGB">
        <feDropShadow dx="0" dy="8" stdDeviation="8" flood-color="#5360A8" flood-opacity="0.18"/>
      </filter>
      <clipPath id="flaskClip">
        <path d="M414 251H610V377L761 682C790 742 747 812 680 812H342C275 812 232 742 261 682L414 377V251Z"/>
      </clipPath>
    </defs>
    <rect x="56" y="56" width="912" height="912" rx="212" fill="url(#bg)"/>
    <rect x="74" y="74" width="876" height="876" rx="194" stroke="#FFFFFF" stroke-width="32" stroke-opacity="0.88"/>
    <g filter="url(#softShadow)">
      <path d="M176 635C252 497 359 431 497 438C637 445 742 514 827 645" stroke="#B9A9F5" stroke-width="21" stroke-linecap="round" opacity="0.7"/>
      <path d="M210 681C308 798 443 848 615 802C713 776 790 727 848 654" stroke="#D2C9FF" stroke-width="12" stroke-linecap="round" opacity="0.68"/>
      <g filter="url(#smallShadow)">
        <circle cx="185" cy="640" r="58" fill="#FFFFFF"/><circle cx="185" cy="640" r="38" fill="#73C9FF"/><circle cx="171" cy="623" r="12" fill="#FFFFFF" opacity="0.82"/>
      </g>
      <g filter="url(#smallShadow)">
        <circle cx="845" cy="367" r="56" fill="#FFFFFF"/><circle cx="845" cy="367" r="37" fill="#FF91AE"/><circle cx="831" cy="349" r="12" fill="#FFFFFF" opacity="0.82"/>
      </g>
      <g filter="url(#smallShadow)">
        <circle cx="520" cy="837" r="58" fill="#FFFFFF"/><circle cx="520" cy="837" r="37" fill="#8BECD6"/><circle cx="506" cy="820" r="12" fill="#FFFFFF" opacity="0.82"/>
      </g>
      <path d="M260 260C294 252 304 242 312 208C320 242 331 252 365 260C331 268 320 278 312 312C304 278 294 268 260 260Z" fill="#FFD86B" stroke="#F2B640" stroke-width="7" stroke-linejoin="round"/>
      <circle cx="236" cy="336" r="10" fill="#FFE38A" stroke="#F3C851" stroke-width="4"/>
      <path d="M414 251H610V377L761 682C790 742 747 812 680 812H342C275 812 232 742 261 682L414 377V251Z" fill="url(#flaskGlass)" stroke="#666BA8" stroke-width="10" stroke-linejoin="round"/>
      <ellipse cx="512" cy="247" rx="128" ry="45" fill="#F3FBFF" stroke="#737AB8" stroke-width="10"/>
      <ellipse cx="512" cy="232" rx="103" ry="20" fill="#FFFFFF" opacity="0.86"/>
      <g clip-path="url(#flaskClip)">
        <path d="M227 578C313 538 394 538 470 579C543 618 609 613 790 556V843H226L227 578Z" fill="url(#water)" opacity="0.94"/>
        <path d="M292 555C365 524 422 531 477 561C543 596 613 599 704 561" stroke="#FFFFFF" stroke-width="16" stroke-linecap="round" opacity="0.58"/>
        <path d="M383 322V735" stroke="#FFFFFF" stroke-width="22" stroke-linecap="round" opacity="0.35"/>
        <circle cx="590" cy="455" r="21" fill="#74D9FF" stroke="#FFFFFF" stroke-width="6"/>
        <circle cx="551" cy="500" r="14" fill="#8BE6FF" stroke="#FFFFFF" stroke-width="5"/>
        <circle cx="624" cy="391" r="7" fill="#FFFFFF" opacity="0.78"/>
      </g>
      <circle cx="441" cy="660" r="23" fill="#2D3267"/><circle cx="583" cy="660" r="23" fill="#2D3267"/>
      <circle cx="433" cy="649" r="8" fill="#FFFFFF" opacity="0.82"/><circle cx="575" cy="649" r="8" fill="#FFFFFF" opacity="0.82"/>
      <path d="M489 701C505 718 527 718 543 701" stroke="#2D3267" stroke-width="10" stroke-linecap="round"/>
      <ellipse cx="388" cy="694" rx="23" ry="15" fill="#FF9FB8" opacity="0.8"/><ellipse cx="633" cy="694" rx="23" ry="15" fill="#FF9FB8" opacity="0.8"/>
      <g filter="url(#smallShadow)">
        <path d="M622 536C622 518 636 504 654 504H774V594C774 607 790 614 800 604C821 583 858 598 858 628C858 658 821 674 800 652C790 642 774 649 774 662V748H654C636 748 622 734 622 716V654H673C685 654 692 640 684 631C665 610 679 576 708 576C737 576 751 610 732 631C724 640 731 654 743 654H622V536Z" fill="url(#pink)" stroke="#FFFFFF" stroke-width="8" stroke-linejoin="round"/>
        <path d="M774 504H894C912 504 926 518 926 536V656H842C829 656 823 671 833 680C853 700 839 736 810 736C781 736 767 700 787 680C797 671 791 656 778 656H774V504Z" fill="url(#mint)" stroke="#FFFFFF" stroke-width="8" stroke-linejoin="round"/>
        <path d="M622 654H743C731 654 724 640 732 631C751 610 737 576 708 576C679 576 665 610 684 631C692 640 685 654 673 654H622V774C622 792 636 806 654 806H774V730C774 717 758 711 749 720C728 741 692 726 692 697C692 668 728 653 749 674C758 683 774 677 774 664V654H622Z" fill="url(#cream)" stroke="#FFFFFF" stroke-width="8" stroke-linejoin="round"/>
        <path d="M774 656H778C791 656 797 671 787 680C767 700 781 736 810 736C839 736 853 700 833 680C823 671 829 656 842 656H926V774C926 792 912 806 894 806H774V730C774 717 758 711 749 720C728 741 692 726 692 697C692 668 728 653 749 674C758 683 774 677 774 664V656Z" fill="url(#violet)" stroke="#FFFFFF" stroke-width="8" stroke-linejoin="round"/>
      </g>
    </g>
  </svg>

  <text x="240" y="126" font-family="ui-sans-serif, system-ui, -apple-system, 'Segoe UI', Roboto, Helvetica, Arial, sans-serif" font-size="58" font-weight="800" letter-spacing="-1.2" fill="#eaf0f8">LovelyMiscLab</text>
  <text x="243" y="166" font-family="ui-sans-serif, system-ui, -apple-system, 'Segoe UI', Roboto, Helvetica, Arial, sans-serif" font-size="22" font-weight="500" fill="#9aa7bd">Node-based visual workbench</text>
  <text x="243" y="196" font-family="ui-sans-serif, system-ui, -apple-system, 'Segoe UI', Roboto, Helvetica, Arial, sans-serif" font-size="16" font-weight="400" fill="#6b7791">encoding &#183; steganography &#183; imaging &#183; cryptography</text>
</svg>
